PathFileType   4   (X/Y/Z)
DataRate	CameraRate	NumFrames	NumMarkers	Units	OrigDataRate	OrigDataStartFrame	OrigNumFrames
120.0	120.0	4	37	mm	120.0	137	182
Frame#	Time	midhip	hip_r	hip_l	knee_r	knee_l	ankle_r	ankle_l	midasis	asis_r	asis_l	psis_r	psis_l	epicondLat_r	epicondLat_l	epicondMed_r	epicondMed_l	malleolusLat_r	malleolusLat_l	malleolusMedv_r	malleolusMedv_l	neck	subclavicle_r	subclavicle_l	sternalnotch	xyphoidprocess	thighwand_r	thighwand_l	upperleg1_r	upperleg1_l	upperleg2_r	upperleg2_l	shankwand_r	shankwand_l	lowerleg1_r	lowerleg1_l	toe_r	toe_l
 	 	X1	Y1	Z1	X2	Y2	Z2	X3	Y3	Z3	X4	Y4	Z4	X5	Y5	Z5	X6	Y6	Z6	X7	Y7	Z7	X8	Y8	Z8	X9	Y9	Z9	X10	Y10	Z10	X11	Y11	Z11	X12	Y12	Z12	X13	Y13	Z13	X14	Y14	Z14	X15	Y15	Z15	X16	Y16	Z16	X17	Y17	Z17	X18	Y18	Z18	X19	Y19	Z19	X20	Y20	Z20	X21	Y21	Z21	X22	Y22	Z22	X23	Y23	Z23	X24	Y24	Z24	X25	Y25	Z25	X26	Y26	Z26	X27	Y27	Z27	X28	Y28	Z28	X29	Y29	Z29	X30	Y30	Z30	X31	Y31	Z31	X32	Y32	Z32	X33	Y33	Z33	X34	Y34	Z34	X35	Y35	Z35	X36	Y36	Z36	X37	Y37	Z37

	137	1.39167	-279.719	899.937	283.596	-266.381	888.298	335.562	-290.061	891.425	231.703	-263.179	481.763	323.571	-164.791	492.940	191.942	-343.212	70.462	316.505	-261.836	83.290	181.934	-203.107	988.518	269.477	-179.974	985.463	370.936	-226.241	991.573	168.017	-392.735	1010.197	346.534	-411.704	1011.005	262.754	-245.924	480.220	380.493	-170.785	496.949	132.881	-280.555	497.699	266.711	-168.487	485.883	243.735	-342.964	69.762	354.497	-270.685	86.324	143.558	-343.604	75.277	284.238	-257.155	97.083	210.386	-316.368	1468.793	316.440	-212.562	1388.335	378.346	-239.634	1397.727	225.410	-238.801	1395.321	300.236	-216.980	1192.829	277.076	-202.524	581.031	460.048	-60.561	651.696	167.464	-194.465	645.059	390.379	-152.091	687.967	140.739	-201.119	565.055	363.430	-138.726	601.193	143.735	-308.239	138.933	421.598	-143.807	177.659	173.630	-319.797	199.995	363.106	-197.538	240.332	173.746	-219.837	42.102	303.161	-143.989	61.880	177.011
	138	1.40000	-275.534	899.711	283.237	-262.468	887.921	335.259	-285.974	891.216	231.366	-261.007	481.336	323.197	-158.199	493.502	191.860	-343.188	70.458	316.326	-245.585	81.667	181.857	-199.112	988.270	269.449	-176.147	985.050	370.948	-222.077	991.489	167.950	-388.755	1009.764	346.186	-407.599	1010.683	262.313	-243.587	479.712	380.067	-163.948	497.524	132.775	-278.515	497.385	266.449	-162.632	486.374	243.441	-342.845	69.754	354.318	-254.525	84.496	143.486	-343.670	75.235	284.117	-241.232	95.546	210.318	-312.256	1468.483	316.239	-208.433	1388.008	378.197	-235.535	1397.389	225.168	-234.687	1394.990	300.042	-212.893	1192.492	276.906	-199.517	580.433	459.528	-55.098	653.002	168.064	-191.583	644.482	389.871	-146.691	688.657	140.805	-198.538	564.473	362.886	-132.882	601.994	143.772	-307.590	138.742	421.326	-129.815	178.836	173.502	-318.846	199.847	362.863	-185.008	240.202	173.656	-219.807	42.139	303.014	-127.240	62.755	176.774
	139	1.40833	-271.347	899.521	282.798	-258.555	887.516	334.974	-281.860	890.985	231.042	-258.774	480.904	322.798	-151.690	494.007	191.743	-343.137	70.455	316.155	-229.447	80.261	181.868	-195.085	987.985	269.458	-172.316	984.597	371.005	-217.855	991.374	167.912	-384.779	1009.320	345.825	-403.523	1010.373	261.881	-241.203	479.193	379.618	-157.197	498.052	132.637	-276.280	497.021	266.120	-156.645	486.827	243.219	-342.703	69.751	354.146	-238.485	82.875	143.504	-343.639	75.178	283.994	-225.341	94.208	210.338	-308.117	1468.200	315.949	-204.288	1387.637	378.050	-231.389	1396.972	224.946	-230.540	1394.604	299.856	-208.884	1192.082	276.812	-196.498	579.814	459.001	-49.710	654.244	168.641	-188.692	643.858	389.382	-141.407	689.292	140.835	-195.870	563.894	362.353	-127.045	602.718	143.821	-306.919	138.542	421.055	-115.970	180.130	173.397	-317.929	199.727	362.635	-172.634	240.169	173.631	-219.757	42.165	302.867	-110.681	63.560	176.515
	140	1.41667	-267.279	899.232	282.289	-254.636	887.085	334.701	-277.724	890.735	230.726	-256.492	480.466	322.379	-145.283	494.443	191.595	-343.074	70.458	315.996	-213.442	79.066	181.941	-191.030	987.669	269.493	-168.470	984.103	371.095	-213.591	991.235	167.891	-380.809	1008.859	345.446	-399.480	1010.076	261.457	-238.786	478.664	379.155	-150.557	498.519	132.470	-274.021	496.797	265.777	-150.630	487.231	242.949	-342.542	69.754	353.985	-222.584	81.458	143.588	-343.591	75.118	283.842	-209.451	93.099	210.426	-303.960	1467.840	315.640	-200.182	1387.234	377.755	-227.249	1396.521	224.675	-226.415	1394.184	299.570	-204.876	1191.639	276.612	-193.482	579.179	458.473	-44.393	655.411	169.177	-185.617	643.306	388.950	-136.142	689.896	140.819	-193.152	563.256	361.838	-121.197	603.388	143.831	-306.218	138.341	420.785	-102.281	181.532	173.297	-317.059	199.585	362.372	-160.389	240.216	173.612	-219.703	42.180	302.729	-94.328	64.259	176.260
